<?xml version="1.0" encoding="UTF-8" standalone="no"?>
<!-- Created with Inkscape (http://www.inkscape.org/) -->

<svg
   xmlns:dc="http://purl.org/dc/elements/1.1/"
   xmlns:cc="http://creativecommons.org/ns#"
   xmlns:rdf="http://www.w3.org/1999/02/22-rdf-syntax-ns#"
   xmlns:svg="http://www.w3.org/2000/svg"
   xmlns="http://www.w3.org/2000/svg"
   xmlns:sodipodi="http://sodipodi.sourceforge.net/DTD/sodipodi-0.dtd"
   xmlns:inkscape="http://www.inkscape.org/namespaces/inkscape"
   version="1.1"
   width="150"
   height="150"
   id="svg2"
   sodipodi:docname="splash.svg"
   inkscape:version="0.92.2 (5c3e80d, 2017-08-06)">
  <sodipodi:namedview
     pagecolor="#ffffff"
     bordercolor="#666666"
     borderopacity="1"
     objecttolerance="10"
     gridtolerance="10"
     guidetolerance="10"
     inkscape:pageopacity="0"
     inkscape:pageshadow="2"
     inkscape:window-width="1920"
     inkscape:window-height="1057"
     id="namedview46"
     showgrid="false"
     inkscape:zoom="1.5733333"
     inkscape:cx="75"
     inkscape:cy="75"
     inkscape:window-x="-8"
     inkscape:window-y="-8"
     inkscape:window-maximized="1"
     inkscape:current-layer="svg2" />
  <defs
     id="defs4" />
  <metadata
     id="metadata7">
    <rdf:RDF>
      <cc:Work
         rdf:about="">
        <dc:format>image/svg+xml</dc:format>
        <dc:type
           rdf:resource="http://purl.org/dc/dcmitype/StillImage" />
        <dc:title></dc:title>
      </cc:Work>
    </rdf:RDF>
  </metadata>
  <g
     transform="translate(0,-902.36218)"
     id="layer1">
    <path
       d="m 864.47194,632.02441 a 31.771191,31.771191 0 1 1 -63.54239,0 31.771191,31.771191 0 1 1 63.54239,0 z"
       transform="translate(-752.68672,352.36218)"
       id="path3031"
       style="fill:#008000;fill-rule:nonzero;stroke:none" />
    <path
       d="m 837.13395,604.6864 a 19.210487,19.210487 0 1 1 -38.42098,0 19.210487,19.210487 0 1 1 38.42098,0 z"
       transform="translate(-752.68672,352.36218)"
       id="path3033"
       style="fill:#008000;fill-rule:nonzero;stroke:none" />
    <path
       d="m 875.55488,618.72485 a 13.299568,13.299568 0 1 1 -26.59914,0 13.299568,13.299568 0 1 1 26.59914,0 z"
       transform="translate(-752.68672,352.36218)"
       id="path3035"
       style="fill:#008000;fill-rule:nonzero;stroke:none" />
    <path
       d="m 874.81602,657.8847 a 20.688217,20.688217 0 1 1 -41.37643,0 20.688217,20.688217 0 1 1 41.37643,0 z"
       transform="translate(-752.68672,352.36218)"
       id="path3037"
       style="fill:#008000;fill-rule:nonzero;stroke:none" />
    <path
       d="m 817.92346,643.10742 a 16.993893,16.993893 0 1 1 -33.98779,0 16.993893,16.993893 0 1 1 33.98779,0 z"
       transform="translate(-752.68672,352.36218)"
       id="path3039"
       style="fill:#008000;fill-rule:nonzero;stroke:none" />
    <path
       d="m 836.39507,663.05676 a 10.344109,10.344109 0 1 1 -20.68821,0 10.344109,10.344109 0 1 1 20.68821,0 z"
       transform="translate(-752.68672,352.36218)"
       id="path3041"
       style="fill:#008000;fill-rule:nonzero;stroke:none" />
    <path
       d="m 794.27976,631.28558 a 7.388649,7.388649 0 1 1 -14.7773,0 7.388649,7.388649 0 1 1 14.7773,0 z"
       transform="translate(-752.68672,352.36218)"
       id="path3043"
       style="fill:#008000;fill-rule:nonzero;stroke:none" />
    <path
       d="m 793.54091,650.49603 a 9.6052437,9.6052437 0 1 1 -19.21048,0 9.6052437,9.6052437 0 1 1 19.21048,0 z"
       transform="translate(-752.68672,352.36218)"
       id="path3045"
       style="fill:#008000;fill-rule:nonzero;stroke:none" />
    <path
       d="m 810.53479,659.36243 a 5.1720543,5.1720543 0 1 1 -10.34411,0 5.1720543,5.1720543 0 1 1 10.34411,0 z"
       transform="translate(-752.68672,352.36218)"
       id="path3047"
       style="fill:#008000;fill-rule:nonzero;stroke:none" />
    <path
       d="m 829.00639,584.73706 a 7.388649,7.388649 0 1 1 -14.7773,0 7.388649,7.388649 0 1 1 14.7773,0 z"
       transform="translate(-752.68672,352.36218)"
       id="path3049"
       style="fill:#008000;fill-rule:nonzero;stroke:none" />
    <path
       d="m 812.01249,600.25323 a 12.560703,12.560703 0 1 1 -25.12141,0 12.560703,12.560703 0 1 1 25.12141,0 z"
       transform="translate(-752.68672,352.36218)"
       id="path3051"
       style="fill:#008000;fill-rule:nonzero;stroke:none" />
    <path
       d="m 873.33829,603.94757 a 7.388649,7.388649 0 1 1 -14.77729,0 7.388649,7.388649 0 1 1 14.77729,0 z"
       transform="translate(-752.68672,352.36218)"
       id="path3053"
       style="fill:#008000;fill-rule:nonzero;stroke:none" />
    <path
       d="m 883.68238,623.15808 a 8.1275139,8.1275139 0 1 1 -16.25502,0 8.1275139,8.1275139 0 1 1 16.25502,0 z"
       transform="translate(-752.68672,352.36218)"
       id="path3055"
       style="fill:#008000;fill-rule:nonzero;stroke:none" />
    <path
       d="m 887.37674,652.71265 a 12.560703,12.560703 0 1 1 -25.1214,0 12.560703,12.560703 0 1 1 25.1214,0 z"
       transform="translate(-752.68672,352.36218)"
       id="path3057"
       style="fill:#008000;fill-rule:nonzero;stroke:none" />
    <path
       d="m 868.16622,677.83405 a 11.082973,11.082973 0 1 1 -22.16594,0 11.082973,11.082973 0 1 1 22.16594,0 z"
       transform="translate(-752.68672,352.36218)"
       id="path3059"
       style="fill:#008000;fill-rule:nonzero;stroke:none" />
    <path
       d="m 831.22299,673.40088 a 5.9109192,5.9109192 0 1 1 -11.82184,0 5.9109192,5.9109192 0 1 1 11.82184,0 z"
       transform="translate(-752.68672,352.36218)"
       id="path3061"
       style="fill:#008000;fill-rule:nonzero;stroke:none" />
    <path
       d="m 820.14001,666.01221 a 5.1720543,5.1720543 0 1 1 -10.34411,0 5.1720543,5.1720543 0 1 1 10.34411,0 z"
       transform="translate(-752.68672,352.36218)"
       id="path3063"
       style="fill:#008000;fill-rule:nonzero;stroke:none" />
    <path
       d="m 797.9741,588.4314 a 7.388649,7.388649 0 1 1 -14.7773,0 7.388649,7.388649 0 1 1 14.7773,0 z"
       transform="translate(-752.68672,352.36218)"
       id="path3065"
       style="fill:#008000;fill-rule:nonzero;stroke:none" />
    <path
       d="m 776.54699,646.80176 a 5.1720543,5.1720543 0 1 1 -10.34411,0 5.1720543,5.1720543 0 1 1 10.34411,0 z"
       transform="translate(-752.68672,352.36218)"
       id="path3067"
       style="fill:#008000;fill-rule:nonzero;stroke:none" />
    <path
       d="m 790.58545,605.42529 a 5.1720543,5.1720543 0 1 1 -10.34411,0 5.1720543,5.1720543 0 1 1 10.34411,0 z"
       transform="translate(-752.68672,352.36218)"
       id="path3069"
       style="fill:#008000;fill-rule:nonzero;stroke:none" />
    <path
       d="m 863.73303,597.29779 a 5.1720543,5.1720543 0 1 1 -10.34411,0 5.1720543,5.1720543 0 1 1 10.34411,0 z"
       transform="translate(-752.68672,352.36218)"
       id="path3071"
       style="fill:#008000;fill-rule:nonzero;stroke:none" />
    <path
       d="m 888.85446,616.50824 a 5.9109192,5.9109192 0 1 1 -11.82184,0 5.9109192,5.9109192 0 1 1 11.82184,0 z"
       transform="translate(-752.68672,352.36218)"
       id="path3073"
       style="fill:#008000;fill-rule:nonzero;stroke:none" />
    <path
       d="m 893.28766,650.49603 a 6.6497841,6.6497841 0 1 1 -13.29957,0 6.6497841,6.6497841 0 1 1 13.29957,0 z"
       transform="translate(-752.68672,352.36218)"
       id="path3075"
       style="fill:#008000;fill-rule:nonzero;stroke:none" />
    <path
       d="m 850.43349,588.4314 a 4.4331894,4.4331894 0 1 1 -8.86637,0 4.4331894,4.4331894 0 1 1 8.86637,0 z"
       transform="translate(-752.68672,352.36218)"
       id="path3077"
       style="fill:#008000;fill-rule:nonzero;stroke:none" />
    <path
       d="m 883.68242,589.17029 a 3.6943245,3.6943245 0 1 1 -7.38865,0 3.6943245,3.6943245 0 1 1 7.38865,0 z"
       transform="translate(-752.68672,352.36218)"
       id="path3079"
       style="fill:#008000;fill-rule:nonzero;stroke:none" />
    <path
       d="m 808.31817,569.95978 a 5.1720543,5.1720543 0 1 1 -10.34411,0 5.1720543,5.1720543 0 1 1 10.34411,0 z"
       transform="translate(-752.68672,352.36218)"
       id="path3081"
       style="fill:#008000;fill-rule:nonzero;stroke:none" />
    <path
       d="m 840.08939,569.22089 a 5.9109192,5.9109192 0 1 1 -11.82184,0 5.9109192,5.9109192 0 1 1 11.82184,0 z"
       transform="translate(-752.68672,352.36218)"
       id="path3083"
       style="fill:#008000;fill-rule:nonzero;stroke:none" />
    <path
       d="m 775.0693,613.5528 a 4.4331894,4.4331894 0 1 1 -8.86638,0 4.4331894,4.4331894 0 1 1 8.86638,0 z"
       transform="translate(-752.68672,352.36218)"
       id="path3085"
       style="fill:#008000;fill-rule:nonzero;stroke:none" />
    <path
       d="m 771.37494,634.97992 a 5.1720543,5.1720543 0 1 1 -10.34411,0 5.1720543,5.1720543 0 1 1 10.34411,0 z"
       transform="translate(-752.68672,352.36218)"
       id="path3087"
       style="fill:#008000;fill-rule:nonzero;stroke:none" />
    <path
       d="m 793.54092,671.92316 a 4.4331894,4.4331894 0 1 1 -8.86638,0 4.4331894,4.4331894 0 1 1 8.86638,0 z"
       transform="translate(-752.68672,352.36218)"
       id="path3089"
       style="fill:#008000;fill-rule:nonzero;stroke:none" />
    <path
       d="m 814.96799,678.57294 a 5.9109192,5.9109192 0 1 1 -11.82184,0 5.9109192,5.9109192 0 1 1 11.82184,0 z"
       transform="translate(-752.68672,352.36218)"
       id="path3091"
       style="fill:#008000;fill-rule:nonzero;stroke:none" />
    <path
       d="m 833.43961,693.35022 a 5.9109192,5.9109192 0 1 1 -11.82184,0 5.9109192,5.9109192 0 1 1 11.82184,0 z"
       transform="translate(-752.68672,352.36218)"
       id="path3093"
       style="fill:#008000;fill-rule:nonzero;stroke:none" />
    <path
       d="m 764.72515,674.8786 a 3.6943245,3.6943245 0 1 1 -7.38865,0 3.6943245,3.6943245 0 1 1 7.38865,0 z"
       transform="translate(-752.68672,352.36218)"
       id="path3095"
       style="fill:#008000;fill-rule:nonzero;stroke:none" />
    <path
       d="m 757.33654,573.65411 a 3.6943245,3.6943245 0 1 1 -7.38865,0 3.6943245,3.6943245 0 1 1 7.38865,0 z"
       transform="translate(-742.34261,356.0565)"
       id="path3097"
       style="fill:#008000;fill-rule:nonzero;stroke:none" />
    <path
       d="m 901.41516,673.40088 a 5.1720543,5.1720543 0 1 1 -10.34411,0 5.1720543,5.1720543 0 1 1 10.34411,0 z"
       transform="translate(-752.68672,352.36218)"
       id="path3099"
       style="fill:#008000;fill-rule:nonzero;stroke:none" />
    <path
       d="m 868.90509,686.70044 a 5.1720543,5.1720543 0 1 1 -10.34411,0 5.1720543,5.1720543 0 1 1 10.34411,0 z"
       transform="translate(-752.68672,352.36218)"
       id="path3101"
       style="fill:#008000;fill-rule:nonzero;stroke:none" />
    <path
       d="m 885.16012,663.79559 a 4.4331894,4.4331894 0 1 1 -8.86638,0 4.4331894,4.4331894 0 1 1 8.86638,0 z"
       transform="translate(-752.68672,352.36218)"
       id="path3103"
       style="fill:#008000;fill-rule:nonzero;stroke:none" />
    <path
       d="m 893.28767,690.39478 a 8.1275139,8.1275139 0 1 1 -16.25503,0 8.1275139,8.1275139 0 1 1 16.25503,0 z"
       transform="translate(-752.68672,352.36218)"
       id="path3105"
       style="fill:#008000;fill-rule:nonzero;stroke:none" />
    <path
       d="m 835.65618,694.08911 a 3.6943245,3.6943245 0 1 1 -7.38865,0 3.6943245,3.6943245 0 1 1 7.38865,0 z"
       transform="translate(-752.68672,352.36218)"
       id="path3107"
       style="fill:#008000;fill-rule:nonzero;stroke:none" />
    <path
       d="m 899.19854,689.65588 a 5.1720543,5.1720543 0 1 1 -10.34411,0 5.1720543,5.1720543 0 1 1 10.34411,0 z"
       transform="translate(-752.68672,352.36218)"
       id="path3109"
       style="fill:#008000;fill-rule:nonzero;stroke:none" />
  </g>
</svg>
